<svg width="15" height="20" viewBox="0 0 15 20" fill="none" xmlns="http://www.w3.org/2000/svg">
<path d="M14 2H10V1.2C10 0.539062 9.46094 0 8.8 0H5.6C4.93906 0 4.4 0.539062 4.4 1.2V2H0.4C0.179688 2 0 2.17969 0 2.4C0 2.62031 0.179688 2.8 0.4 2.8H0.834375L2.27813 19.0063C2.32813 19.5625 2.80156 20 3.35625 20H11.0422C11.5969 20 12.0703 19.5625 12.1203 19.0063L13.5656 2.8H14C14.2219 2.8 14.4 2.62031 14.4 2.4C14.4 2.17969 14.2219 2 14 2ZM5.2 17.6C5.2 17.8219 5.02031 18 4.8 18C4.57969 18 4.4 17.8219 4.4 17.6V4.4C4.4 4.17969 4.57969 4 4.8 4C5.02031 4 5.2 4.17969 5.2 4.4V17.6ZM5.2 1.2C5.2 0.979688 5.37969 0.8 5.6 0.8H8.8C9.02031 0.8 9.2 0.979688 9.2 1.2V2H5.2V1.2ZM7.6 17.6C7.6 17.8219 7.42031 18 7.2 18C6.97969 18 6.8 17.8219 6.8 17.6V4.4C6.8 4.17969 6.97969 4 7.2 4C7.42031 4 7.6 4.17969 7.6 4.4V17.6ZM10 17.6C10 17.8219 9.82187 18 9.6 18C9.37812 18 9.2 17.8219 9.2 17.6V4.4C9.2 4.17969 9.37812 4 9.6 4C9.82187 4 10 4.17969 10 4.4V17.6Z" fill="#ED7777"/>
</svg>
