<svg width="25" height="25" viewBox="0 0 25 25" fill="none" xmlns="http://www.w3.org/2000/svg">
<g clip-path="url(#clip0)">
<path d="M15.2695 5.29279H13.3107C13.1082 5.29279 12.9442 5.45687 12.9442 5.65925V6.27282H9.22854C9.15153 6.27282 9.07648 6.2971 9.01399 6.34215L5.03781 9.21287H0.366468C0.164031 9.21287 0 9.37695 0 9.57934V15.9106C0 16.113 0.164031 16.277 0.366468 16.277H5.0532L6.1506 16.9479C6.32318 17.0534 6.54878 16.999 6.65442 16.8263C6.75996 16.6536 6.70553 16.4281 6.53285 16.3225L5.52277 15.7051V9.76682L9.34703 7.0058H12.9442V17.9943H9.32915L7.97639 17.1911C7.80244 17.0879 7.57758 17.145 7.47419 17.3191C7.37089 17.4931 7.42821 17.718 7.60221 17.8213L9.04145 18.6759C9.09808 18.7095 9.16268 18.7272 9.22854 18.7272H12.9442V19.3408C12.9442 19.5432 13.1082 19.7072 13.3107 19.7072H15.2695C15.4719 19.7072 15.636 19.5432 15.636 19.3408V9.06291C15.636 8.86052 15.4719 8.69644 15.2695 8.69644C15.0671 8.69644 14.903 8.86052 14.903 9.06291V18.9743H13.6771V6.02572H14.903V7.38498C14.903 7.58736 15.0671 7.75144 15.2695 7.75144C15.4719 7.75144 15.636 7.58736 15.636 7.38498V5.65925C15.636 5.45687 15.4719 5.29279 15.2695 5.29279V5.29279ZM4.78983 15.5442H3.12788V9.94585H4.78988V15.5442H4.78983ZM0.732936 9.94585H2.39494V15.5442H0.732936V9.94585Z" fill="black"/>
<path d="M22.4624 12.745L24.8927 10.3148C25.0358 10.1716 25.0358 9.93959 24.8927 9.79652C24.7495 9.6534 24.5176 9.6534 24.3744 9.79652L21.9442 12.2267L19.514 9.79652C19.3708 9.6534 19.1388 9.6534 18.9957 9.79652C18.8526 9.93963 18.8526 10.1717 18.9957 10.3148L21.426 12.745L18.9957 15.1753C18.8526 15.3184 18.8526 15.5505 18.9957 15.6935C19.0673 15.7651 19.1611 15.8009 19.2549 15.8009C19.3486 15.8009 19.4425 15.7651 19.514 15.6935L21.9443 13.2633L24.3745 15.6935C24.4461 15.7651 24.5399 15.8009 24.6336 15.8009C24.7274 15.8009 24.8212 15.7651 24.8928 15.6935C25.0359 15.5504 25.0359 15.3184 24.8928 15.1753L22.4624 12.745Z" fill="black"/>
</g>
<defs>
<clipPath id="clip0">
<rect width="25" height="25" fill="white"/>
</clipPath>
</defs>
</svg>
