<svg width="25" height="25" viewBox="0 0 25 25" fill="none" xmlns="http://www.w3.org/2000/svg">
<g clip-path="url(#clip0)">
<path d="M13.3015 5.66403H15.259V19.336H13.3015V5.66403Z" fill="#325A93"/>
<path d="M13.3016 6.64352V18.3565H9.22243L5.15305 15.9083V9.58149L9.22243 6.64352H13.3016Z" fill="#5FE1FF"/>
<path d="M0.366364 9.58151H5.15303V15.9082H0.366364V9.58151Z" fill="#5FE1FF"/>
<path d="M11.3484 6.64352H13.3016V18.3565H11.3484V6.64352Z" fill="#3EB6FF"/>
<path d="M0.366364 9.58151H2.75945V15.9082H0.366364V9.58151Z" fill="#325A93"/>
<path d="M1.56293 9.58151H2.75947V15.9082H1.56293V9.58151Z" fill="#132D77"/>
<path d="M15.2589 5.29779H13.3015C13.0992 5.29779 12.9353 5.46176 12.9353 5.66401V6.27715H9.22221C9.14525 6.27715 9.07025 6.30141 9.0078 6.34643L5.03437 9.21516H0.366214C0.163918 9.21516 0 9.37913 0 9.58138V15.9083C0 16.1105 0.163918 16.2745 0.366214 16.2745H5.04971L6.14635 16.9448C6.31891 17.0503 6.54435 16.996 6.64987 16.8234C6.75534 16.6508 6.70099 16.4254 6.52843 16.3199L5.519 15.7029V9.76869L9.34062 7.00958H12.9353V17.9904H9.32275L7.97088 17.1878C7.797 17.0847 7.57239 17.1418 7.46902 17.3157C7.36579 17.4897 7.42307 17.7144 7.59695 17.8176L9.03524 18.6716C9.09184 18.7052 9.15639 18.7229 9.22221 18.7229H12.9353V19.336C12.9353 19.5383 13.0992 19.7022 13.3015 19.7022H15.2589C15.4612 19.7022 15.6252 19.5383 15.6252 19.336V9.06526C15.6252 8.86301 15.4612 8.69905 15.2589 8.69905C15.0566 8.69905 14.8927 8.86301 14.8927 9.06526V18.9698H13.6677V6.03017H14.8927V7.38849C14.8927 7.59073 15.0566 7.7547 15.2589 7.7547C15.4612 7.7547 15.6252 7.59073 15.6252 7.38849V5.66396C15.6252 5.46176 15.4612 5.29779 15.2589 5.29779V5.29779ZM4.78657 15.542H3.12576V9.94759H4.78662V15.542H4.78657ZM0.732429 9.94759H2.39333V15.542H0.732429V9.94759Z" fill="black"/>
<path d="M22.4642 12.7448L24.8928 10.3162C25.0358 10.1732 25.0358 9.94134 24.8928 9.79837C24.7497 9.65535 24.5179 9.65535 24.3749 9.79837L21.9463 12.2269L19.5178 9.79837C19.3747 9.65535 19.1429 9.65535 18.9998 9.79837C18.8568 9.94138 18.8568 10.1733 18.9998 10.3162L21.4284 12.7448L18.9998 15.1734C18.8568 15.3164 18.8568 15.5483 18.9998 15.6913C19.0714 15.7628 19.1651 15.7986 19.2588 15.7986C19.3525 15.7986 19.4463 15.7628 19.5178 15.6913L21.9464 13.2628L24.3749 15.6913C24.4464 15.7628 24.5402 15.7986 24.6339 15.7986C24.7276 15.7986 24.8213 15.7628 24.8929 15.6913C25.0359 15.5483 25.0359 15.3164 24.8929 15.1734L22.4642 12.7448Z" fill="black"/>
</g>
<defs>
<clipPath id="clip0">
<rect width="25" height="25" fill="white"/>
</clipPath>
</defs>
</svg>
