<svg width="15" height="20" viewBox="0 0 15 20" fill="none" xmlns="http://www.w3.org/2000/svg">
<path d="M6.39038 0C5.73369 0 5.19243 0.542188 5.19243 1.2V2H2.07279C2.02287 1.99063 1.97296 1.99063 1.92305 2H1.19929C1.18681 2 1.17433 2 1.16185 2C0.941917 2.01094 0.770336 2.19844 0.781255 2.41875C0.792174 2.63906 0.979353 2.81094 1.19929 2.8H1.63604L3.07108 19C3.12099 19.5594 3.59674 20 4.15671 20H11.8186C12.3785 20 12.8543 19.5594 12.9042 19L14.3392 2.8H14.776C14.9195 2.80156 15.0536 2.72656 15.1269 2.60156C15.1987 2.47656 15.1987 2.32344 15.1269 2.19844C15.0536 2.07344 14.9195 1.99844 14.776 2H10.7828V1.2C10.7828 0.542188 10.2416 0 9.5849 0H6.39038ZM6.39038 0.8H9.5849C9.80951 0.8 9.98421 0.975 9.98421 1.2V2H5.99106V1.2C5.99106 0.975 6.16576 0.8 6.39038 0.8ZM2.43467 2.8H13.5406L12.1056 18.9375C12.0931 19.0766 11.9449 19.2 11.8186 19.2H4.15671C4.03037 19.2 3.88218 19.0766 3.8697 18.9375L2.43467 2.8ZM5.55431 3.9875C5.53716 3.99063 5.52 3.99531 5.5044 4C5.31878 4.04219 5.18776 4.20938 5.19243 4.4V17.6C5.19088 17.7438 5.26575 17.8781 5.39053 17.9516C5.51532 18.0234 5.66818 18.0234 5.79297 17.9516C5.91775 17.8781 5.99262 17.7438 5.99106 17.6V4.4C5.99574 4.28438 5.94895 4.17344 5.86628 4.09531C5.78205 4.01563 5.66818 3.97656 5.55431 3.9875ZM7.9502 3.9875C7.93304 3.99063 7.91589 3.99531 7.90029 4C7.71467 4.04219 7.58364 4.20938 7.58832 4.4V17.6C7.58676 17.7438 7.66163 17.8781 7.78642 17.9516C7.91121 18.0234 8.06407 18.0234 8.18885 17.9516C8.31364 17.8781 8.38851 17.7438 8.38695 17.6V4.4C8.39163 4.28438 8.34484 4.17344 8.26217 4.09531C8.17794 4.01563 8.06407 3.97656 7.9502 3.9875ZM10.3461 3.9875C10.3289 3.99063 10.3118 3.99531 10.2962 4C10.1106 4.04219 9.97953 4.20938 9.98421 4.4V17.6C9.98265 17.7438 10.0575 17.8781 10.1823 17.9516C10.3071 18.0234 10.46 18.0234 10.5847 17.9516C10.7095 17.8781 10.7844 17.7438 10.7828 17.6V4.4C10.7875 4.28438 10.7407 4.17344 10.6581 4.09531C10.5738 4.01563 10.46 3.97656 10.3461 3.9875Z" fill="#727482"/>
</svg>
